<svg width="38" height="38" viewBox="0 0 38 38" fill="none" xmlns="http://www.w3.org/2000/svg">
<path d="M2.6471 0.599609H35.3761C36.5031 0.599609 37.4001 1.49661 37.4001 2.62361V35.3756C37.4001 36.4796 36.5031 37.3996 35.3761 37.3996H25.9921V23.1396H30.7761L31.4891 17.5966H25.9921V14.0546C25.9921 12.4446 26.4521 11.3406 28.7521 11.3406H31.6961V6.37261C31.1901 6.30361 29.4421 6.16561 27.4181 6.16561C23.1631 6.16561 20.2651 8.74161 20.2651 13.5026V17.5966H15.4581V23.1396H20.2651V37.3996H2.6471C2.10816 37.3996 1.59095 37.1871 1.20772 36.8082C0.824489 36.4293 0.606153 35.9145 0.600098 35.3756V2.62361C0.600098 1.49661 1.5201 0.599609 2.6471 0.599609Z" fill="#F32929"/>
</svg>
