<svg width="37" height="37" viewBox="0 0 37 37" fill="none" xmlns="http://www.w3.org/2000/svg">
<path d="M26.9375 0.21875H10.0625C7.45263 0.221542 4.95046 1.25954 3.105 3.105C1.25954 4.95046 0.221542 7.45263 0.21875 10.0625V26.9375C0.221542 29.5474 1.25954 32.0495 3.105 33.895C4.95046 35.7405 7.45263 36.7785 10.0625 36.7812H26.9375C29.5474 36.7785 32.0495 35.7405 33.895 33.895C35.7405 32.0495 36.7785 29.5474 36.7812 26.9375V10.0625C36.7785 7.45263 35.7405 4.95046 33.895 3.105C32.0495 1.25954 29.5474 0.221542 26.9375 0.21875ZM18.5 26.9375C16.8312 26.9375 15.1999 26.4426 13.8124 25.5155C12.4248 24.5884 11.3434 23.2706 10.7048 21.7289C10.0662 20.1871 9.89906 18.4906 10.2246 16.8539C10.5502 15.2172 11.3538 13.7138 12.5338 12.5338C13.7138 11.3538 15.2172 10.5502 16.8539 10.2246C18.4906 9.89906 20.1871 10.0662 21.7289 10.7048C23.2706 11.3434 24.5884 12.4248 25.5155 13.8124C26.4426 15.1999 26.9375 16.8312 26.9375 18.5C26.9352 20.737 26.0455 22.8818 24.4636 24.4636C22.8818 26.0455 20.737 26.9352 18.5 26.9375ZM29.0469 10.0625C28.6297 10.0625 28.2219 9.93879 27.875 9.70701C27.5281 9.47523 27.2577 9.14579 27.0981 8.76035C26.9384 8.37491 26.8966 7.95078 26.978 7.54161C27.0594 7.13243 27.2603 6.75657 27.5553 6.46157C27.8503 6.16657 28.2262 5.96567 28.6354 5.88428C29.0445 5.80289 29.4687 5.84466 29.8541 6.00432C30.2395 6.16397 30.569 6.43433 30.8008 6.78122C31.0325 7.1281 31.1562 7.53593 31.1562 7.95312C31.1562 8.51257 30.934 9.04909 30.5384 9.44468C30.1428 9.84026 29.6063 10.0625 29.0469 10.0625ZM24.125 18.5C24.125 19.6125 23.7951 20.7001 23.177 21.6251C22.5589 22.5501 21.6804 23.2711 20.6526 23.6968C19.6248 24.1226 18.4938 24.234 17.4026 24.0169C16.3115 23.7999 15.3092 23.2641 14.5225 22.4775C13.7359 21.6908 13.2001 20.6885 12.9831 19.5974C12.766 18.5062 12.8774 17.3752 13.3032 16.3474C13.7289 15.3196 14.4499 14.4411 15.3749 13.823C16.2999 13.2049 17.3875 12.875 18.5 12.875C19.9918 12.875 21.4226 13.4676 22.4775 14.5225C23.5324 15.5774 24.125 17.0082 24.125 18.5Z" fill="#F32929"/>
</svg>
