<svg width="37" height="37" viewBox="0 0 37 37" fill="none" xmlns="http://www.w3.org/2000/svg">
<path d="M18.4137 5.03612e-05C13.5221 0.0228778 8.83874 1.98205 5.38797 5.449C1.93719 8.91596 -5.32631e-05 13.6085 1.09834e-09 18.5001C1.09835e-09 23.4066 1.9491 28.1121 5.41852 31.5815C8.88795 35.051 13.5935 37.0001 18.5 37.0001C23.4065 37.0001 28.1121 35.051 31.5815 31.5815C35.0509 28.1121 37 23.4066 37 18.5001C37 13.5935 35.0509 8.888 31.5815 5.41858C28.1121 1.94915 23.4065 5.03612e-05 18.5 5.03612e-05C18.4712 -1.67871e-05 18.4424 -1.67871e-05 18.4137 5.03612e-05ZM26.0634 11.1371C26.2176 11.134 26.5583 11.1725 26.7803 11.3529C26.9278 11.481 27.0219 11.6598 27.0439 11.8539C27.0686 11.9973 27.0994 12.3257 27.0747 12.5816C26.7972 15.5077 25.5917 22.6055 24.9781 25.8816C24.7191 27.2691 24.2088 27.7331 23.7139 27.7778C22.6409 27.878 21.8254 27.0686 20.7847 26.3872C19.1567 25.3188 18.2364 24.6544 16.6562 23.6122C14.8293 22.4097 16.0133 21.7468 17.0539 20.6676C17.3268 20.384 22.0597 16.0781 22.1522 15.6881C22.163 15.6387 22.1738 15.4568 22.0659 15.3612C21.958 15.2656 21.7976 15.298 21.682 15.3242C21.5186 15.3612 18.9178 17.0817 13.8796 20.4811C13.1396 20.9898 12.4721 21.2365 11.8724 21.2211C11.2125 21.2088 9.94221 20.8496 8.99717 20.5428C7.83783 20.1651 6.91746 19.9662 6.99762 19.3264C7.03925 18.9934 7.49867 18.6527 8.37433 18.3043C13.7671 15.9548 17.3622 14.4054 19.1629 13.6577C24.2997 11.5209 25.3681 11.1494 26.0634 11.1371Z" fill="#F32929"/>
</svg>
