<svg width="38" height="38" viewBox="0 0 38 38" fill="none" xmlns="http://www.w3.org/2000/svg">
<path d="M34.4375 0H3.5625C1.60312 0 0 1.60312 0 3.5625V34.4375C0 36.3969 1.60312 38 3.5625 38H34.4375C36.3969 38 38 36.3969 38 34.4375V3.5625C38 1.60312 36.3969 0 34.4375 0ZM30.7776 26.6L27.303 26.6523C27.303 26.6523 26.5525 26.8019 25.574 26.125C24.2749 25.2344 23.0494 22.9116 22.0923 23.2156C21.128 23.5196 21.1565 25.6049 21.1565 25.6049C21.1565 25.6049 21.1636 26.0514 20.9404 26.2865C20.7029 26.5454 20.2279 26.5976 20.2279 26.5976H18.677C18.677 26.5976 15.2475 26.8066 12.2265 23.6574C8.93 20.2279 6.023 13.4235 6.023 13.4235C6.023 13.4235 5.852 12.977 6.03725 12.7633C6.24388 12.5186 6.802 12.5044 6.802 12.5044L10.5212 12.483C10.5212 12.483 10.8704 12.5424 11.1221 12.7276C11.3311 12.8773 11.4404 13.1646 11.4404 13.1646C11.4404 13.1646 12.0413 14.687 12.8369 16.0597C14.3878 18.7388 15.1145 19.3254 15.6418 19.0427C16.4065 18.6271 16.1761 15.2499 16.1761 15.2499C16.1761 15.2499 16.1904 14.0244 15.7914 13.4829C15.4803 13.0601 14.8936 12.9343 14.6419 12.9034C14.4329 12.8725 14.7749 12.3904 15.2214 12.1695C15.8887 11.8418 17.0691 11.8204 18.4656 11.8346C19.5486 11.8417 19.8692 11.9154 20.292 12.0128C21.5769 12.3239 21.1375 13.5185 21.1375 16.3851C21.1375 17.3066 20.9736 18.5963 21.6339 19.019C21.9165 19.2043 22.6124 19.0475 24.358 16.0883C25.1821 14.6846 25.8044 13.0387 25.8044 13.0387C25.8044 13.0387 25.9374 12.7419 26.1464 12.616C26.3625 12.4901 26.6523 12.5281 26.6523 12.5281L30.5639 12.5067C30.5639 12.5067 31.7371 12.3666 31.9295 12.901C32.129 13.4567 31.4925 14.7559 29.8965 16.8862C27.2769 20.3822 26.98 20.0545 29.1626 22.0732C31.2408 24.0041 31.6706 24.9446 31.7466 25.0634C32.5921 26.4884 30.7824 26.6 30.7824 26.6H30.7776Z" fill="#F32929"/>
</svg>
