<svg width="179" height="42" viewBox="0 0 179 42" fill="none" xmlns="http://www.w3.org/2000/svg">
<path d="M47.7716 8.52333L47.0607 9.26817V11.4687C47.0628 11.543 47.0495 11.6169 47.0216 11.6859C46.9937 11.7549 46.9518 11.8173 46.8986 11.8694C46.8449 11.9246 46.7806 11.9684 46.7095 11.9981C46.6384 12.0278 46.5619 12.0428 46.4848 12.0422C46.4101 12.0417 46.3363 12.0261 46.2679 11.9964C46.1995 11.9667 46.1378 11.9235 46.0866 11.8694C46.0335 11.8173 45.9918 11.7548 45.9642 11.6858C45.9365 11.6168 45.9235 11.5429 45.9259 11.4687V4.53013C45.9304 4.38103 45.9873 4.23821 46.0866 4.12656C46.1975 4.02752 46.3401 3.97082 46.489 3.96655C46.6392 3.9708 46.7832 4.02743 46.8957 4.12656C46.9976 4.24066 47.0552 4.38735 47.0578 4.54004V7.64115L50.2458 4.24268C50.2891 4.18351 50.3442 4.13377 50.4075 4.09652C50.4708 4.05926 50.5411 4.03528 50.6141 4.02603C50.6893 4.013 50.7664 4.01652 50.8401 4.03634C50.9138 4.05615 50.9823 4.09178 51.0407 4.14072C51.1002 4.18388 51.1503 4.23864 51.188 4.30169C51.2256 4.36474 51.25 4.43475 51.2596 4.50748C51.2723 4.58237 51.2686 4.65911 51.2487 4.73243C51.2288 4.80575 51.1933 4.87393 51.1445 4.93228L48.5651 7.69921L51.1772 11.1133C51.2294 11.1679 51.2691 11.2332 51.2936 11.3045C51.3182 11.3759 51.3269 11.4517 51.3194 11.5267C51.2992 11.6803 51.219 11.8197 51.0961 11.9147C50.9955 11.9958 50.8701 12.0402 50.7406 12.0407C50.6566 12.0422 50.5733 12.0243 50.4974 11.9884C50.4214 11.9526 50.3548 11.8997 50.3027 11.834L47.7716 8.52333Z" fill="#FEFEFF"/>
<path d="M54.8374 8.92525L52.5011 11.7899C52.4486 11.857 52.3816 11.9114 52.305 11.9492C52.2284 11.9869 52.1443 12.007 52.0589 12.0079C51.9327 12.0063 51.8108 11.9619 51.7134 11.8819C51.6531 11.8391 51.6022 11.7845 51.5638 11.7215C51.5254 11.6584 51.5003 11.5882 51.4901 11.5152C51.477 11.4403 51.4804 11.3634 51.5003 11.29C51.5202 11.2166 51.5561 11.1485 51.6053 11.0904L54.1136 7.99634L51.6323 4.92497C51.5836 4.86657 51.5481 4.79839 51.5282 4.72508C51.5083 4.65177 51.5046 4.57505 51.5171 4.50016C51.5227 4.42602 51.5447 4.35403 51.5816 4.28939C51.6185 4.22475 51.6693 4.16905 51.7304 4.12633C51.7869 4.07842 51.8532 4.04334 51.9246 4.02353C51.9961 4.00372 52.071 3.99966 52.1442 4.01163C52.2941 4.03337 52.4299 4.11139 52.5239 4.2297L54.8374 7.07167L57.1039 4.22545C57.1979 4.10714 57.3337 4.02912 57.4836 4.00738C57.557 3.99549 57.6321 3.99958 57.7038 4.01938C57.7755 4.03919 57.842 4.07422 57.8988 4.12208C57.9611 4.16495 58.0129 4.22116 58.0506 4.28658C58.0882 4.352 58.1107 4.42497 58.1164 4.50016C58.1292 4.57505 58.1256 4.65183 58.1057 4.72519C58.0858 4.79854 58.0502 4.86671 58.0012 4.92497L55.5626 7.99634L54.8374 8.92525Z" fill="#FEFEFF"/>
<path d="M61.765 3.99582C62.0631 3.99975 62.3574 4.06346 62.6303 4.18316C62.9032 4.30286 63.1491 4.47609 63.3533 4.69251C63.767 5.10703 64.002 5.66591 64.0084 6.25032C64.0148 6.83473 63.792 7.39856 63.3874 7.82193C62.9721 8.25732 62.4112 8.5263 61.8105 8.57809C61.8038 8.5847 61.1479 8.58847 59.8425 8.58942V11.4215C59.8444 11.4967 59.83 11.5714 59.8003 11.6405C59.7706 11.7097 59.7263 11.7716 59.6705 11.8222C59.6187 11.8767 59.5563 11.9201 59.4871 11.9499C59.4179 11.9796 59.3434 11.9949 59.2681 11.995C59.1177 11.9915 58.9743 11.9309 58.8672 11.8256C58.7602 11.7203 58.6976 11.5783 58.6922 11.4286V4.56931C58.6913 4.4926 58.7062 4.41653 58.7357 4.34569C58.7653 4.27486 58.809 4.21075 58.8642 4.15725C58.9168 4.10421 58.9798 4.06251 59.0493 4.03474C59.1188 4.00697 59.1932 3.99372 59.2681 3.99582H61.765ZM61.6725 7.44527C61.829 7.44831 61.9843 7.4192 62.1289 7.35975C62.2735 7.3003 62.4042 7.21179 62.5129 7.09976C62.7316 6.8804 62.8578 6.58605 62.8656 6.27704C62.8558 5.97011 62.728 5.67865 62.5086 5.46283C62.3978 5.35538 62.2661 5.27159 62.1216 5.21656C61.9771 5.16154 61.8228 5.13644 61.6683 5.1428H59.8425V7.44527H61.6725Z" fill="#FEFEFF"/>
<path d="M71.5807 6.79227C71.4501 6.86272 71.2969 6.87949 71.1541 6.839C71.0843 6.82343 71.0189 6.79262 70.9626 6.74878C70.9063 6.70494 70.8605 6.64918 70.8285 6.58553C70.254 5.63112 69.4293 5.15392 68.3543 5.15392C67.5919 5.15907 66.8621 5.46218 66.3219 5.99797C65.7818 6.53376 65.4745 7.25937 65.4663 8.01855C65.4604 8.39352 65.5332 8.7656 65.6801 9.1109C65.827 9.4562 66.0448 9.7671 66.3195 10.0236C66.5874 10.2875 66.9055 10.4954 67.2552 10.6352C67.6048 10.775 67.979 10.8439 68.3557 10.8379C68.8271 10.8399 69.2914 10.723 69.7051 10.498C70.1284 10.2673 70.4882 9.93669 70.7531 9.53512C70.7871 9.46608 70.8377 9.40653 70.9005 9.36179C70.9633 9.31706 71.0363 9.28855 71.1128 9.27881C71.1842 9.26188 71.2587 9.26354 71.3291 9.28363C71.3996 9.30373 71.4637 9.34157 71.5153 9.39351C71.5841 9.42509 71.6452 9.47122 71.6943 9.52868C71.7434 9.58615 71.7793 9.65358 71.7996 9.72628C71.8244 9.798 71.8299 9.87489 71.8157 9.94939C71.8015 10.0239 71.768 10.0934 71.7186 10.1511C71.3576 10.7194 70.8595 11.1887 70.2696 11.5161C69.6833 11.8454 69.0203 12.0153 68.3472 12.0089C67.8169 12.0155 67.2908 11.9152 66.8004 11.7143C66.3099 11.5133 65.8654 11.2156 65.4934 10.8393C65.1062 10.4786 64.799 10.0415 64.5913 9.55572C64.3837 9.06998 64.2802 8.54641 64.2876 8.01855C64.2792 7.48379 64.3822 6.9531 64.5903 6.46003C64.7983 5.96696 65.1068 5.52222 65.4962 5.15392C66.1242 4.53355 66.9389 4.13499 67.8157 4.01916C68.6926 3.90332 69.5834 4.07658 70.3521 4.51246C70.9602 4.85104 71.4585 5.3556 71.7883 5.96672C71.8357 6.03864 71.8674 6.11966 71.8813 6.20454C71.8953 6.28943 71.8912 6.37629 71.8693 6.4595C71.8486 6.53265 71.8121 6.60038 71.7622 6.65788C71.7123 6.71539 71.6503 6.76127 71.5807 6.79227Z" fill="#FEFEFF"/>
<path d="M73.2271 11.9963C73.1516 11.999 73.0763 11.986 73.0061 11.9583C72.9358 11.9305 72.8721 11.8885 72.819 11.8349C72.7638 11.7814 72.7201 11.7173 72.6905 11.6464C72.661 11.5756 72.6461 11.4995 72.647 11.4228V4.56924C72.6435 4.49386 72.6572 4.41867 72.687 4.34928C72.7168 4.27989 72.7619 4.2181 72.819 4.16851C72.87 4.11264 72.9325 4.06831 73.0021 4.03851C73.0718 4.00871 73.1471 3.99413 73.2229 3.99575C73.2982 3.99582 73.3727 4.01117 73.4419 4.04087C73.5111 4.07057 73.5735 4.114 73.6253 4.16851C73.6824 4.2181 73.7275 4.27989 73.7573 4.34928C73.7871 4.41867 73.8008 4.49386 73.7973 4.56924V7.4013C75.1027 7.4013 75.7586 7.40508 75.7653 7.41263C76.366 7.46442 76.927 7.73339 77.3422 8.16879C77.7472 8.58223 77.9708 9.13896 77.9636 9.71651C77.9562 10.3112 77.7189 10.8802 77.301 11.3051C76.883 11.73 76.3167 11.9781 75.7198 11.9977L73.2271 11.9963ZM73.7959 8.54545V10.8493H75.6259C75.7805 10.8557 75.9347 10.8306 76.0792 10.7756C76.2237 10.7205 76.3554 10.6368 76.4663 10.5293C76.6857 10.3135 76.8134 10.022 76.8232 9.71509C76.815 9.4045 76.6872 9.10893 76.4663 8.88955C76.3575 8.77777 76.2267 8.68952 76.0821 8.63032C75.9375 8.57111 75.7822 8.54222 75.6259 8.54545H73.7959ZM78.3191 4.52393C78.3191 4.37371 78.379 4.22964 78.4857 4.12342C78.5923 4.01719 78.737 3.95752 78.8879 3.95752C79.0423 3.96134 79.1899 4.02127 79.3031 4.12603C79.4024 4.23711 79.4593 4.37949 79.4637 4.52818V11.4455C79.4657 11.5197 79.4525 11.5934 79.4249 11.6624C79.3973 11.7313 79.3558 11.7938 79.3031 11.8462C79.2513 11.9007 79.1889 11.9442 79.1197 11.9739C79.0505 12.0036 78.976 12.0189 78.9007 12.019C78.7515 12.0137 78.6099 11.9523 78.5043 11.8472C78.3988 11.7421 78.3372 11.6011 78.3319 11.4526L78.3191 4.52393Z" fill="#FEFEFF"/>
<path d="M88.5783 3.97388C88.7274 3.97829 88.8701 4.03553 88.9807 4.1353C89.0837 4.24986 89.1413 4.39784 89.1428 4.55162C89.1384 4.70015 89.0809 4.84224 88.9807 4.95235C88.87 5.05172 88.7273 5.10846 88.5783 5.11236H86.8293V11.4463C86.8314 11.5206 86.8181 11.5945 86.7902 11.6634C86.7623 11.7324 86.7204 11.7949 86.6672 11.847C86.6156 11.9018 86.5533 11.9454 86.4841 11.9751C86.4148 12.0048 86.3402 12.02 86.2648 12.0198C86.1156 12.0145 85.974 11.9531 85.8685 11.848C85.7629 11.7429 85.7013 11.6019 85.696 11.4533V5.10812H83.9513C83.8768 5.11029 83.8026 5.0972 83.7334 5.06968C83.6642 5.04216 83.6014 5.00078 83.5489 4.9481C83.4947 4.89707 83.4516 4.83561 83.422 4.76745C83.3924 4.6993 83.377 4.62587 83.3768 4.55162C83.376 4.47491 83.3908 4.39883 83.4204 4.328C83.45 4.25717 83.4937 4.19305 83.5489 4.13955C83.6013 4.08669 83.6641 4.0451 83.7333 4.01733C83.8025 3.98957 83.8767 3.97622 83.9513 3.97813L88.5783 3.97388Z" fill="#FEFEFF"/>
<path d="M92.6863 8.92587L90.3501 11.7905C90.297 11.8583 90.229 11.9132 90.1514 11.951C90.0738 11.9888 89.9886 12.0085 89.9022 12.0086C89.7759 12.0074 89.6538 11.9629 89.5567 11.8825C89.497 11.8395 89.4468 11.7848 89.4091 11.7217C89.3714 11.6586 89.3471 11.5886 89.3377 11.5158C89.3252 11.4409 89.329 11.3642 89.3489 11.2909C89.3687 11.2176 89.4042 11.1494 89.4528 11.091L91.9611 7.99696L89.4756 4.92559C89.4269 4.86719 89.3914 4.79901 89.3715 4.7257C89.3516 4.65239 89.3478 4.57568 89.3604 4.50078C89.3789 4.35196 89.4559 4.21652 89.5745 4.12414C89.6931 4.03177 89.8437 3.99 89.9932 4.00801C90.1431 4.02974 90.2789 4.10777 90.3728 4.22607L92.6863 7.06804L94.9543 4.22607C95.0483 4.10777 95.1841 4.02974 95.334 4.00801C95.4835 3.99 95.634 4.03177 95.7526 4.12414C95.8713 4.21652 95.9483 4.35196 95.9667 4.50078C95.9793 4.57568 95.9756 4.65239 95.9557 4.7257C95.9358 4.79901 95.9003 4.86719 95.8516 4.92559L93.4115 7.99696L92.6863 8.92587Z" fill="#FEFEFF"/>
<path d="M99.614 3.99582C99.9122 3.99974 100.207 4.06346 100.479 4.18316C100.752 4.30286 100.998 4.47609 101.202 4.6925C101.413 4.89831 101.58 5.1446 101.693 5.41646C101.806 5.68833 101.862 5.98012 101.858 6.27421C101.862 6.56022 101.809 6.84418 101.702 7.10978C101.596 7.37538 101.437 7.6174 101.236 7.82193C100.822 8.25701 100.261 8.52596 99.661 8.57808C99.6524 8.58469 98.9964 8.58847 97.693 8.58941V11.4215C97.6946 11.4967 97.6799 11.5715 97.65 11.6406C97.6201 11.7098 97.5756 11.7717 97.5195 11.8222C97.4679 11.8768 97.4055 11.9204 97.3363 11.9501C97.2671 11.9798 97.1925 11.9951 97.1171 11.995C96.9682 11.989 96.8269 11.9275 96.7215 11.8225C96.6161 11.7175 96.5543 11.5769 96.5483 11.4286V4.56931C96.5477 4.4925 96.5627 4.41636 96.5925 4.34552C96.6224 4.27468 96.6663 4.21062 96.7218 4.15724C96.7741 4.10425 96.8369 4.06256 96.9061 4.03478C96.9754 4.00701 97.0496 3.99374 97.1242 3.99582H99.614ZM99.523 7.44526C99.6792 7.44811 99.8343 7.41891 99.9786 7.35946C100.123 7.30002 100.253 7.21161 100.362 7.09975C100.583 6.8807 100.711 6.58493 100.719 6.27421C100.71 5.96711 100.582 5.67539 100.362 5.45999C100.251 5.35272 100.12 5.26903 99.9756 5.21401C99.8313 5.15899 99.6774 5.1338 99.523 5.13997H97.693V7.44526H99.523Z" fill="#FEFEFF"/>
<path d="M106.803 10.8494C106.953 10.8538 107.095 10.911 107.206 11.0108C107.261 11.0643 107.305 11.1284 107.334 11.1993C107.364 11.2701 107.379 11.3462 107.378 11.4229C107.38 11.4981 107.365 11.5728 107.336 11.6419C107.306 11.7111 107.262 11.773 107.206 11.8236C107.154 11.8781 107.092 11.9216 107.022 11.9513C106.953 11.981 106.879 11.9963 106.803 11.9964H102.791C102.642 11.9904 102.501 11.9289 102.395 11.8239C102.29 11.7189 102.228 11.5783 102.222 11.43V4.56931C102.221 4.4925 102.236 4.41636 102.266 4.34552C102.296 4.27468 102.34 4.21062 102.395 4.15724C102.448 4.10425 102.51 4.06256 102.58 4.03478C102.649 4.00701 102.723 3.99374 102.798 3.99582H106.803C106.953 4.00023 107.095 4.05747 107.206 4.15724C107.261 4.21074 107.305 4.27486 107.334 4.34569C107.364 4.41652 107.379 4.4926 107.378 4.56931C107.381 4.64511 107.368 4.7207 107.339 4.79087C107.31 4.86104 107.266 4.9241 107.21 4.97571C107.157 5.02971 107.094 5.07239 107.024 5.10113C106.954 5.12987 106.879 5.14405 106.803 5.1428H103.362V7.44526H105.986C106.135 7.44968 106.278 7.50691 106.388 7.60669C106.444 7.66007 106.488 7.72413 106.517 7.79497C106.547 7.8658 106.562 7.94194 106.562 8.01875C106.563 8.09403 106.549 8.16877 106.519 8.23791C106.489 8.30705 106.444 8.36897 106.388 8.41949C106.337 8.47413 106.274 8.51765 106.205 8.54736C106.136 8.57707 106.061 8.59235 105.986 8.59224H103.367V10.8494H106.803Z" fill="#FEFEFF"/>
<path d="M113.93 12.0075H108.652C108.576 12.009 108.501 11.9944 108.432 11.9646C108.362 11.9348 108.3 11.8905 108.249 11.8348C108.195 11.7832 108.151 11.7211 108.122 11.6522C108.092 11.5832 108.077 11.509 108.077 11.434V4.58045C108.074 4.50508 108.088 4.42992 108.118 4.36055C108.147 4.29118 108.192 4.22937 108.249 4.17971C108.3 4.12396 108.362 4.07969 108.432 4.04989C108.501 4.02009 108.576 4.00545 108.652 4.00696C108.727 4.00683 108.802 4.02209 108.872 4.05179C108.941 4.0815 109.004 4.12503 109.056 4.17971C109.111 4.23004 109.155 4.29215 109.184 4.36148C109.212 4.43082 109.225 4.50563 109.221 4.58045V10.8605H112.775V4.58045C112.772 4.50508 112.786 4.42992 112.816 4.36055C112.845 4.29118 112.89 4.22937 112.948 4.17971C112.999 4.12385 113.061 4.07952 113.131 4.04972C113.2 4.01992 113.276 4.00534 113.351 4.00696C113.427 4.00702 113.501 4.02237 113.57 4.05207C113.64 4.08178 113.702 4.12521 113.754 4.17971C113.811 4.22937 113.856 4.29118 113.886 4.36055C113.915 4.42992 113.929 4.50508 113.926 4.58045V10.8605H114.513C114.666 10.8633 114.813 10.9205 114.927 11.022C115.027 11.1319 115.085 11.2741 115.089 11.4227V13.3018C115.091 13.3761 115.078 13.45 115.05 13.519C115.022 13.5879 114.98 13.6504 114.927 13.7025C114.817 13.8122 114.668 13.8743 114.513 13.8753C114.436 13.8759 114.359 13.8609 114.288 13.8312C114.217 13.8015 114.153 13.7577 114.099 13.7025C114.043 13.652 113.999 13.5901 113.969 13.5209C113.939 13.4518 113.924 13.377 113.926 13.3018L113.93 12.0075Z" fill="#FEFEFF"/>
<path d="M117.52 8.52358L116.81 9.26841V11.4689C116.812 11.5432 116.798 11.6172 116.77 11.6862C116.743 11.7551 116.701 11.8176 116.647 11.8697C116.594 11.9249 116.529 11.9687 116.458 11.9984C116.387 12.0281 116.311 12.0431 116.234 12.0424C116.158 12.0425 116.084 12.0272 116.014 11.9975C115.945 11.9678 115.883 11.9243 115.831 11.8697C115.778 11.8176 115.736 11.7551 115.708 11.6862C115.68 11.6172 115.667 11.5432 115.669 11.4689V4.53038C115.674 4.3813 115.731 4.23852 115.83 4.12681C115.941 4.02776 116.083 3.97107 116.232 3.9668C116.385 3.96987 116.531 4.02655 116.646 4.12681C116.748 4.2409 116.805 4.38759 116.808 4.54029V7.64139L119.995 4.24292C120.038 4.18393 120.093 4.13432 120.157 4.09708C120.22 4.05985 120.29 4.03576 120.363 4.02627C120.438 4.01344 120.515 4.01706 120.589 4.03686C120.663 4.05667 120.731 4.09219 120.79 4.14097C120.849 4.1843 120.899 4.23911 120.937 4.30212C120.974 4.36514 120.999 4.43507 121.008 4.50772C121.021 4.58261 121.017 4.65935 120.998 4.73267C120.978 4.806 120.942 4.87417 120.893 4.93253L118.321 7.69945L120.933 11.1135C120.985 11.1682 121.025 11.2334 121.05 11.3048C121.074 11.3761 121.083 11.4519 121.075 11.527C121.065 11.6035 121.039 11.6771 121 11.7437C120.96 11.8102 120.908 11.8684 120.846 11.915C120.745 11.9963 120.619 12.0408 120.489 12.041C120.406 12.0423 120.323 12.0244 120.247 11.9885C120.171 11.9526 120.105 11.8999 120.053 11.8343L117.52 8.52358Z" fill="#FEFEFF"/>
<path d="M125.335 11.9962C124.808 12.0041 124.285 11.9022 123.799 11.6968C123.313 11.4915 122.876 11.1874 122.516 10.8039C122.141 10.4319 121.845 9.98862 121.645 9.50044C121.445 9.01226 121.346 8.4891 121.353 7.96197C121.349 7.44202 121.45 6.92656 121.649 6.44616C121.849 5.96577 122.144 5.53021 122.516 5.16532C122.885 4.79468 123.324 4.50049 123.808 4.29973C124.292 4.09897 124.811 3.99561 125.335 3.99561C125.859 3.99561 126.378 4.09897 126.862 4.29973C127.346 4.50049 127.785 4.79468 128.154 5.16532C128.526 5.53021 128.82 5.96577 129.02 6.44616C129.22 6.92656 129.321 7.44202 129.317 7.96197C129.324 8.4891 129.225 9.01226 129.025 9.50044C128.825 9.98862 128.529 10.4319 128.154 10.8039C127.793 11.1873 127.357 11.4915 126.871 11.6968C126.386 11.9021 125.863 12.0041 125.335 11.9962ZM125.335 5.10726C124.575 5.10801 123.847 5.40901 123.309 5.94421C122.772 6.47941 122.47 7.20509 122.469 7.96197C122.459 8.34656 122.529 8.729 122.674 9.08577C122.818 9.44253 123.034 9.76606 123.309 10.0365C123.574 10.3038 123.889 10.5161 124.237 10.6611C124.585 10.806 124.958 10.8806 125.335 10.8806C125.712 10.8806 126.085 10.806 126.433 10.6611C126.78 10.5161 127.096 10.3038 127.36 10.0365C127.634 9.76435 127.85 9.44079 127.996 9.08463C128.143 8.72847 128.217 8.34683 128.213 7.96197C128.217 7.58545 128.143 7.21218 127.997 6.86515C127.85 6.51812 127.633 6.20468 127.36 5.94413C127.098 5.6743 126.783 5.46083 126.435 5.3169C126.087 5.17296 125.712 5.10162 125.335 5.10726Z" fill="#FEFEFF"/>
<path d="M131.1 5.15394V11.434C131.101 11.5107 131.086 11.5868 131.056 11.6576C131.027 11.7285 130.983 11.7926 130.928 11.8461C130.817 11.9459 130.675 12.0031 130.526 12.0075C130.451 12.0094 130.377 11.9961 130.308 11.9683C130.238 11.9406 130.176 11.899 130.123 11.8461C130.068 11.7926 130.024 11.7285 129.995 11.6576C129.965 11.5868 129.95 11.5107 129.951 11.434V4.58045C129.948 4.50508 129.961 4.42992 129.991 4.36055C130.021 4.29118 130.066 4.22937 130.123 4.17971C130.174 4.12385 130.237 4.07952 130.306 4.04972C130.376 4.01992 130.451 4.00534 130.527 4.00696H134.531C134.607 4.00685 134.681 4.02213 134.75 4.05184C134.82 4.08155 134.882 4.12507 134.934 4.17971C134.989 4.22997 135.033 4.29203 135.062 4.36136C135.091 4.43068 135.104 4.50553 135.1 4.58045C135.101 4.6575 135.086 4.7339 135.056 4.805C135.026 4.8761 134.982 4.94038 134.926 4.99393C134.817 5.09144 134.678 5.14803 134.531 5.15394H131.1Z" fill="#FEFEFF"/>
<path d="M139.374 11.9964C138.847 12.0043 138.323 11.9023 137.838 11.697C137.352 11.4916 136.915 11.1875 136.554 10.8041C136.18 10.4319 135.884 9.98863 135.684 9.50044C135.485 9.01225 135.385 8.48913 135.393 7.96209C135.389 7.44223 135.489 6.92681 135.689 6.4464C135.888 5.966 136.183 5.5304 136.554 5.16544C136.924 4.79476 137.363 4.50054 137.847 4.29976C138.331 4.09898 138.85 3.99561 139.374 3.99561C139.898 3.99561 140.417 4.09898 140.901 4.29976C141.385 4.50054 141.825 4.79476 142.194 5.16544C142.566 5.53033 142.86 5.96589 143.06 6.44628C143.26 6.92668 143.361 7.44214 143.357 7.96209C143.364 8.48922 143.265 9.01238 143.065 9.50056C142.865 9.98874 142.569 10.432 142.194 10.8041C141.833 11.1875 141.396 11.4916 140.911 11.697C140.425 11.9023 139.902 12.0043 139.374 11.9964ZM139.374 5.10738C138.614 5.1085 137.886 5.40967 137.349 5.94483C136.812 6.47999 136.51 7.20545 136.509 7.96209C136.499 8.34668 136.569 8.72912 136.714 9.08589C136.858 9.44265 137.075 9.76618 137.349 10.0366C137.614 10.3039 137.929 10.5163 138.277 10.6612C138.625 10.8061 138.998 10.8807 139.375 10.8807C139.752 10.8807 140.125 10.8061 140.473 10.6612C140.82 10.5163 141.136 10.3039 141.4 10.0366C141.674 9.76447 141.89 9.44091 142.036 9.08475C142.183 8.72859 142.257 8.34695 142.254 7.96209C142.257 7.58557 142.183 7.2123 142.037 6.86527C141.89 6.51824 141.673 6.2048 141.4 5.94425C141.138 5.67431 140.823 5.46079 140.474 5.31685C140.126 5.17292 139.751 5.10163 139.374 5.10738Z" fill="#FEFEFF"/>
<path d="M152.241 4.02005C152.318 4.01922 152.395 4.03398 152.466 4.06343C152.537 4.09288 152.601 4.13642 152.655 4.19139C152.71 4.24292 152.753 4.30507 152.783 4.37399C152.812 4.44292 152.828 4.51717 152.827 4.59213V11.4457C152.829 11.5209 152.815 11.5956 152.785 11.6647C152.755 11.7339 152.711 11.7959 152.655 11.8464C152.547 11.9499 152.402 12.0076 152.252 12.0076C152.102 12.0076 151.957 11.9499 151.849 11.8464C151.793 11.7959 151.749 11.7339 151.719 11.6647C151.689 11.5956 151.675 11.5209 151.677 11.4457V8.61365H150.502L148.593 11.7289C148.542 11.8154 148.47 11.8871 148.383 11.9368C148.297 11.9865 148.198 12.0125 148.098 12.0121C147.992 12.017 147.888 11.9888 147.799 11.9314C147.732 11.8917 147.674 11.8387 147.628 11.7756C147.582 11.7125 147.55 11.6407 147.533 11.5647C147.514 11.493 147.51 11.418 147.522 11.3447C147.534 11.2714 147.561 11.2016 147.603 11.1398L149.214 8.52586C148.727 8.36228 148.298 8.0594 147.983 7.655C147.674 7.26716 147.508 6.78615 147.511 6.29136C147.513 5.98817 147.577 5.68866 147.7 5.41095C147.822 5.13323 147.999 4.8831 148.221 4.67567C148.427 4.46755 148.673 4.30256 148.944 4.19044C149.214 4.07833 149.505 4.02136 149.798 4.02289L152.241 4.02005ZM151.673 7.4695V5.16562H149.843C149.688 5.15944 149.534 5.18476 149.389 5.24003C149.245 5.2953 149.113 5.37936 149.002 5.48706C148.783 5.70228 148.655 5.99333 148.645 6.29986C148.653 6.61045 148.781 6.90602 149.002 7.1254C149.111 7.23719 149.242 7.32543 149.386 7.38464C149.531 7.44384 149.686 7.47273 149.843 7.4695H151.673Z" fill="#FEFEFF"/>
<path d="M154.723 9.85295C154.744 10.0061 154.797 10.1532 154.878 10.2852C154.959 10.4172 155.066 10.5313 155.193 10.6204C155.462 10.8199 155.792 10.92 156.126 10.9036C156.465 10.9141 156.794 10.795 157.047 10.5709C157.164 10.4718 157.257 10.3486 157.32 10.2099C157.384 10.0712 157.416 9.92036 157.414 9.76799C157.414 9.61119 157.381 9.45621 157.318 9.31255C157.254 9.16888 157.163 9.03957 157.047 8.93253C156.927 8.81199 156.783 8.71727 156.625 8.65419C156.466 8.59112 156.297 8.56103 156.126 8.56578C155.954 8.56992 155.787 8.51264 155.654 8.40435C155.598 8.35376 155.554 8.29179 155.524 8.22264C155.494 8.1535 155.48 8.07879 155.482 8.00361C155.481 7.92691 155.496 7.85083 155.525 7.78C155.555 7.70916 155.599 7.64505 155.654 7.59155C155.787 7.48326 155.954 7.42599 156.126 7.43012C156.296 7.4366 156.465 7.40841 156.624 7.34729C156.782 7.28617 156.926 7.1934 157.047 7.0747C157.164 6.96556 157.256 6.83386 157.319 6.68773C157.382 6.5416 157.415 6.38415 157.414 6.22508C157.416 6.07273 157.383 5.92194 157.32 5.78326C157.257 5.64458 157.164 5.52136 157.047 5.42219C156.794 5.19809 156.465 5.07901 156.126 5.08943C155.803 5.09214 155.487 5.18804 155.217 5.36555C154.977 5.50414 154.8 5.72992 154.723 5.99569C154.682 6.14598 154.593 6.27885 154.469 6.37377C154.406 6.42604 154.331 6.46184 154.251 6.47791C154.17 6.49398 154.087 6.48982 154.009 6.46581C153.618 6.39595 153.422 6.18166 153.422 5.82293C153.488 5.5462 153.608 5.28525 153.776 5.05511C153.944 4.82496 154.156 4.63017 154.4 4.48195C154.912 4.14429 155.516 3.97085 156.13 3.98492C156.794 3.97519 157.44 4.20334 157.949 4.6278C158.194 4.81752 158.392 5.06092 158.528 5.33913C158.664 5.61734 158.733 5.92291 158.731 6.23216C158.737 6.58086 158.657 6.92567 158.496 7.23561C158.335 7.54554 158.1 7.81091 157.811 8.00786C158.098 8.20438 158.332 8.46807 158.492 8.77573C158.653 9.08338 158.735 9.42559 158.731 9.77224C158.731 10.3774 158.47 10.9046 157.949 11.3539C157.449 11.7975 156.8 12.0389 156.13 12.0308C155.482 12.0435 154.847 11.8446 154.323 11.4644C153.85 11.1191 153.529 10.606 153.426 10.0314C153.426 9.67264 153.622 9.45504 154.013 9.37858C154.186 9.3775 154.355 9.42942 154.497 9.52726C154.557 9.55985 154.61 9.60636 154.649 9.66299C154.688 9.71961 154.713 9.78471 154.723 9.85295Z" fill="#FEFEFF"/>
<path d="M159.984 11.9963C159.909 11.9984 159.835 11.9851 159.766 11.9573C159.697 11.9296 159.634 11.8879 159.581 11.8349C159.526 11.7814 159.483 11.7173 159.453 11.6464C159.423 11.5756 159.409 11.4995 159.409 11.4228V4.56924C159.406 4.49386 159.42 4.41867 159.449 4.34928C159.479 4.27989 159.524 4.2181 159.581 4.16851C159.632 4.11268 159.694 4.06836 159.764 4.03855C159.833 4.00875 159.908 3.99415 159.984 3.99575C160.059 3.99562 160.134 4.01088 160.204 4.04059C160.273 4.0703 160.336 4.11383 160.388 4.16851C160.445 4.21829 160.49 4.28012 160.519 4.34946C160.549 4.4188 160.563 4.4939 160.56 4.56924V7.4013C161.864 7.4013 162.52 7.40508 162.528 7.41263C163.129 7.46363 163.691 7.7321 164.107 8.16738C164.512 8.58081 164.736 9.13754 164.729 9.7151C164.721 10.3097 164.484 10.8785 164.066 11.3033C163.648 11.7282 163.082 11.9763 162.485 11.9963H159.984ZM160.553 8.54545V10.8493H162.383C162.537 10.8557 162.691 10.8306 162.836 10.7756C162.98 10.7206 163.112 10.6368 163.223 10.5293C163.443 10.3138 163.57 10.022 163.578 9.7151C163.571 9.40454 163.444 9.10874 163.223 8.88955C163.114 8.77777 162.983 8.68952 162.839 8.63032C162.694 8.57111 162.539 8.54223 162.383 8.54545H160.553ZM165.076 4.52393C165.076 4.37371 165.136 4.22964 165.242 4.12342C165.349 4.01719 165.494 3.95752 165.645 3.95752C165.794 3.96194 165.937 4.0186 166.048 4.11753C166.148 4.22861 166.205 4.37099 166.209 4.51968V11.4455C166.211 11.5197 166.198 11.5934 166.17 11.6624C166.143 11.7313 166.101 11.7938 166.048 11.8462C165.996 11.9009 165.934 11.9444 165.864 11.9741C165.795 12.0038 165.72 12.0191 165.645 12.019C165.495 12.0137 165.354 11.9523 165.248 11.8472C165.143 11.7421 165.081 11.6011 165.076 11.4526V4.52393Z" fill="#FEFEFF"/>
<path d="M168.835 8.52324L168.124 9.26807V11.4686C168.126 11.5428 168.113 11.6166 168.086 11.6855C168.058 11.7544 168.017 11.817 167.964 11.8693C167.91 11.9245 167.846 11.9683 167.775 11.998C167.703 12.0277 167.627 12.0427 167.55 12.0421C167.474 12.0422 167.4 12.0269 167.33 11.9972C167.261 11.9675 167.198 11.924 167.146 11.8693C167.093 11.817 167.052 11.7544 167.024 11.6855C166.996 11.6166 166.983 11.5428 166.985 11.4686V4.53003C166.988 4.37762 167.045 4.23111 167.146 4.11655C167.257 4.01741 167.401 3.96073 167.55 3.95654C167.703 3.96302 167.848 4.02322 167.961 4.12647C168.062 4.24102 168.119 4.38753 168.122 4.53995V7.64105L171.31 4.24258C171.353 4.18359 171.408 4.13398 171.471 4.09674C171.535 4.05951 171.605 4.03542 171.678 4.02593C171.753 4.01291 171.83 4.01643 171.904 4.03624C171.978 4.05605 172.046 4.09168 172.104 4.14063C172.164 4.18354 172.214 4.23824 172.252 4.30133C172.29 4.36443 172.314 4.43456 172.323 4.50738C172.336 4.58227 172.332 4.65901 172.312 4.73233C172.293 4.80566 172.257 4.87383 172.208 4.93219L169.63 7.69486L172.244 11.1089C172.295 11.164 172.335 11.2293 172.359 11.3005C172.384 11.3718 172.393 11.4474 172.386 11.5224C172.366 11.6754 172.288 11.8149 172.167 11.9118C172.066 11.9932 171.94 12.0376 171.81 12.0378C171.726 12.0392 171.643 12.0212 171.567 11.9853C171.491 11.9495 171.424 11.8967 171.372 11.8311L168.835 8.52324Z" fill="#FEFEFF"/>
<path d="M176.96 10.415H174.152L173.669 11.5832C173.615 11.858 173.431 11.9967 173.117 11.9967H172.989C172.911 11.9672 172.839 11.9227 172.778 11.8656C172.717 11.8085 172.668 11.74 172.633 11.664C172.557 11.5804 172.537 11.4388 172.575 11.2392L175.038 4.40964C175.067 4.28425 175.141 4.1735 175.245 4.0976C175.35 4.02169 175.478 3.98569 175.607 3.99616C175.732 3.98765 175.856 4.02497 175.955 4.10111C176.055 4.17726 176.123 4.28698 176.147 4.40964L178.483 11.2392C178.537 11.3756 178.537 11.5275 178.483 11.664C178.415 11.815 178.292 11.9341 178.138 11.9967C177.993 12.0224 177.844 12.0021 177.711 11.9387C177.563 11.8606 177.446 11.7355 177.377 11.5832L176.96 10.415ZM176.621 9.25671L175.608 6.3227L174.572 9.25671H176.621Z" fill="#FEFEFF"/>
<path d="M56.3561 16.2464C57.2093 14.329 60.1058 14.4055 60.9163 16.32C63.4559 21.6853 65.3798 27.3282 67.8042 32.7459C69.3185 33.0475 71.9548 33.1367 71.7671 35.3302C72.0515 36.9289 70.4731 38.3038 68.9232 38.0617C62.0979 38.1028 55.2641 38.1764 48.4345 38.0702C46.4438 38.2911 45.0446 36.2024 45.676 34.4083C46.404 32.9173 48.2056 33.1212 49.5564 32.753C51.9581 27.3112 53.818 21.6287 56.3561 16.2464ZM55.1873 33.0036C57.5051 32.9951 59.8224 32.9951 62.1392 33.0036C61.0177 30.0441 59.8878 27.087 58.7493 24.1322C57.3799 27.0096 56.2907 30.0116 55.1873 33.0036Z" fill="#DB2A2A"/>
<path d="M73.3881 16.9671C73.4364 15.6644 74.5399 14.6618 75.7627 14.7128C76.3244 14.747 76.8545 14.983 77.2546 15.3771C77.6547 15.7711 77.8977 16.2963 77.9383 16.8552C77.9269 21.1496 77.9146 25.4449 77.9013 29.7411C80.1385 27.1413 82.3833 24.4881 84.6356 21.7816C86.2187 19.8747 87.7781 17.9772 89.3138 16.0892C89.5629 15.7479 89.8855 15.4663 90.258 15.265C91.013 14.8586 92.0994 14.7284 92.7819 15.1971C93.6009 15.7635 93.655 16.9827 93.672 17.5335C93.7502 20.0526 93.7659 26.994 93.6464 36.3299C93.2426 37.5817 92.0325 38.369 90.8026 38.233C90.2699 38.1643 89.7699 37.9389 89.3664 37.5858C88.9629 37.2327 88.6743 36.7678 88.5374 36.2506C88.4862 32.5151 88.4355 28.7792 88.3853 25.0427L82.0619 31.7774C80.3428 33.7357 78.8369 35.367 77.6255 36.6712C77.3496 36.9685 76.5818 37.7601 75.5395 37.9456C75.2977 37.9895 74.5157 38.1283 73.9412 37.6921C73.8824 37.651 73.8263 37.6061 73.7734 37.5576C73.3198 37.1328 73.2885 36.5168 73.2743 36.2662C73.2331 35.5171 73.2644 27.6893 73.3881 16.9671Z" fill="#DB2A2A"/>
<path d="M101.778 17.4769C102.515 15.578 104.432 13.8165 106.613 14.55C109.03 15.6177 109.599 18.4313 110.535 20.6389C112.214 25.5724 114.516 30.3104 115.833 35.3656C116.365 37.3566 113.984 38.7344 112.278 38.0079C110.705 37.0054 110.509 35.0074 109.845 33.4257C106.987 33.4172 104.137 33.4257 101.288 33.4016C100.756 34.7143 100.355 36.109 99.5816 37.307C98.4924 38.6522 96.0523 38.4894 95.266 36.9077C95.0115 34.6236 96.1007 32.5038 96.8458 30.4166C98.5564 26.1218 99.9783 21.7264 101.778 17.4769ZM102.654 28.6239C104.563 28.6239 106.473 28.6211 108.386 28.6154C107.391 25.7621 106.512 22.8748 105.628 19.9876C104.554 22.8352 103.63 25.7296 102.654 28.6239Z" fill="#DB2A2A"/>
<path d="M123.763 18.5126C124.137 17.4081 125.06 14.6808 126.725 14.467C127.019 14.4343 127.317 14.4692 127.595 14.5689C129.481 15.1778 130.246 17.7876 130.382 18.2775L137.178 35.3534C137.286 35.9329 137.187 36.5317 136.898 37.0462C136.61 37.5607 136.149 37.9584 135.597 38.1704C135.045 38.3824 134.435 38.3954 133.875 38.207C133.314 38.0186 132.837 37.6408 132.526 37.139L127.237 24.1116L122.687 36.2625C122.324 37.4421 121.407 38.2903 120.333 38.4163C120.13 38.4404 118.87 38.5579 118.185 37.6021C117.563 36.7298 117.93 35.6933 117.967 35.5913C120.53 27.898 122.587 21.9535 123.763 18.5126Z" fill="#DB2A2A"/>
<path d="M145.327 15.3326C149.51 13.8231 154.734 14.3046 158.019 17.5091C161.908 21.3507 162.187 27.7045 160.198 32.519C156.785 40.4048 143.845 40.6002 139.987 33.0174C136.974 27.0418 138.439 17.9098 145.327 15.3326ZM147.013 20.1273C143.656 22.5657 143.353 27.6322 145.195 31.0874C146.931 34.4391 152.287 34.7081 154.383 31.6014C156.324 28.7141 156.324 24.677 154.547 21.709C153.072 19.2055 149.388 18.5937 147.013 20.1273Z" fill="#DB2A2A"/>
<path d="M164.987 15.4138L176.917 15.2722C178.112 15.6234 178.914 16.6882 178.894 17.7814C178.87 19.1337 177.615 20.3501 176.028 20.2963L168.148 20.3104L168.049 36.17C167.979 36.7912 167.682 37.3649 167.214 37.7821C166.747 38.1994 166.142 38.431 165.514 38.4329C164.886 38.4348 164.28 38.2069 163.81 37.7926C163.34 37.3782 163.039 36.8063 162.965 36.1856C162.921 30.7461 162.877 25.3071 162.834 19.8686C162.797 19.669 162.39 17.2079 163.95 15.9547C164.256 15.7072 164.608 15.5233 164.987 15.4138Z" fill="#DB2A2A"/>
<path d="M27.2915 15.7154C31.372 15.7154 34.6799 12.4212 34.6799 8.35769C34.6799 4.29415 31.372 1 27.2915 1C23.211 1 19.9031 4.29415 19.9031 8.35769C19.9031 12.4212 23.211 15.7154 27.2915 15.7154Z" fill="white" stroke="#FDFEFE" stroke-width="0.83" stroke-miterlimit="10"/>
<path d="M30.9404 10.5981C29.9572 11.4436 28.7076 11.9193 27.4087 11.9426C26.1099 11.9659 24.8439 11.5353 23.8307 10.7256" stroke="#191717" stroke-width="0.83" stroke-miterlimit="10" stroke-linecap="round"/>
<path d="M24.8905 6.69332C24.8905 6.86959 24.7465 7.01603 24.5644 7.01603C24.3823 7.01603 24.2382 6.86959 24.2382 6.69332C24.2382 6.51705 24.3823 6.37061 24.5644 6.37061C24.7465 6.37061 24.8905 6.51705 24.8905 6.69332Z" fill="#23283B" stroke="#191717"/>
<path d="M30.6949 6.69332C30.6949 6.86959 30.5508 7.01603 30.3687 7.01603C30.1867 7.01603 30.0426 6.86959 30.0426 6.69332C30.0426 6.51705 30.1867 6.37061 30.3687 6.37061C30.5508 6.37061 30.6949 6.51705 30.6949 6.69332Z" fill="#23283B" stroke="#191717"/>
<path d="M11.2024 19.2249C15.2829 19.2249 18.5908 15.9307 18.5908 11.8672C18.5908 7.80367 15.2829 4.50952 11.2024 4.50952C7.12192 4.50952 3.81403 7.80367 3.81403 11.8672C3.81403 15.9307 7.12192 19.2249 11.2024 19.2249Z" fill="white" stroke="#FDFEFE" stroke-width="0.83" stroke-miterlimit="10"/>
<path d="M14.8526 14.1086C13.8688 14.9531 12.6193 15.4281 11.3206 15.4511C10.022 15.4741 8.75626 15.0438 7.74292 14.2347" stroke="#191717" stroke-width="0.83" stroke-miterlimit="10" stroke-linecap="round"/>
<path d="M8.80109 10.2026C8.80109 10.3789 8.65704 10.5253 8.47495 10.5253C8.29286 10.5253 8.1488 10.3789 8.1488 10.2026C8.1488 10.0263 8.29286 9.87988 8.47495 9.87988C8.65704 9.87988 8.80109 10.0263 8.80109 10.2026Z" fill="black" stroke="#191717"/>
<path d="M14.6055 10.2026C14.6055 10.3789 14.4614 10.5253 14.2793 10.5253C14.0972 10.5253 13.9532 10.3789 13.9532 10.2026C13.9532 10.0263 14.0972 9.87988 14.2793 9.87988C14.4614 9.87988 14.6055 10.0263 14.6055 10.2026Z" fill="black" stroke="#191717"/>
<path d="M37.4953 28.6108C37.4953 22.7796 32.4958 17.8136 31.6398 16.6907C30.5022 18.0968 28.2968 18.3899 27.2915 18.4437C26.2862 18.3857 24.0808 18.0968 22.9446 16.6907C22.0915 17.8136 17.0891 22.7796 17.0891 28.6108C17.0891 32.849 19.596 37.4596 26.7682 37.8674V37.9C26.9474 37.9 27.1195 37.9 27.2915 37.89C27.4636 37.8801 27.637 37.9 27.8148 37.9V37.8674C34.9956 37.4596 37.4953 32.849 37.4953 28.6108Z" fill="white"/>
<path d="M37.4955 28.6622C37.4955 26.742 37.1613 25.5356 36.4035 23.9085C34.8592 20.5964 19.4824 20.9136 17.9382 23.9878C17.0623 25.7296 17.085 26.5523 17.085 28.6607C17.085 32.8989 19.5919 37.5081 26.7641 37.9173V37.9499C26.9433 37.9499 27.1154 37.9499 27.2874 37.94C27.4595 37.9301 27.6329 37.9499 27.8107 37.9499V37.9173C34.9957 37.5095 37.4955 32.9003 37.4955 28.6622Z" fill="#0252FF"/>
<path d="M17.1433 29.7452C18.1998 33.1819 20.2047 37.5447 26.7684 37.9185V37.9511C26.9476 37.9511 27.1196 37.9511 27.2917 37.9412C27.4637 37.9312 27.6372 37.9511 27.8149 37.9511V37.9185C34.3758 37.5447 37.386 32.5971 37.44 30.3711C35.2417 27.6523 22.0732 27.6523 17.1433 29.7452Z" fill="#DB2A2A"/>
<path opacity="0.33" d="M27.3798 35.4059C23.0144 34.9697 19.7895 31.5005 20.1777 27.6588C19.3615 27.5172 19.0188 28.1558 18.5922 28.2946C18.204 32.1363 21.4361 35.6055 25.7943 36.0417C27.4847 36.2209 29.1905 35.8982 30.6972 35.1142C29.6201 35.4206 28.4942 35.5196 27.3798 35.4059Z" fill="white"/>
<path d="M37.4953 28.6108C37.4953 22.7796 32.4958 17.8136 31.6398 16.6907C30.5022 18.0968 28.2968 18.3899 27.2915 18.4437C26.2862 18.3857 24.0808 18.0968 22.9446 16.6907C22.0915 17.8136 17.0891 22.7796 17.0891 28.6108C17.0891 32.849 19.596 37.4596 26.7682 37.8674V37.9C26.9474 37.9 27.1195 37.9 27.2915 37.89C27.4636 37.8801 27.637 37.9 27.8148 37.9V37.8674C34.9956 37.4596 37.4953 32.849 37.4953 28.6108Z" stroke="#FDFEFE" stroke-width="0.83" stroke-linejoin="round"/>
<path d="M21.4062 31.7121C21.4062 25.8809 16.4067 20.9149 15.5507 19.792C14.4131 21.1981 12.2077 21.4912 11.2024 21.5436C10.1971 21.487 7.99167 21.1981 6.85554 19.792C6.00238 20.9149 1 25.8809 1 31.7121C1 35.9489 3.50688 40.5595 10.6806 40.9673V40.9999C10.8583 40.9999 11.0303 40.9999 11.2024 40.9899C11.3745 40.98 11.5479 40.9999 11.7257 40.9999V40.9673C18.8993 40.5595 21.4062 35.9489 21.4062 31.7121Z" fill="#DB2A2A" stroke="#FDFEFE" stroke-width="0.83" stroke-linejoin="round"/>
<path fill-rule="evenodd" clip-rule="evenodd" d="M11.5253 29.7512L12.1808 30.6207L13.2131 30.2695L12.5846 31.1588L13.2401 32.0282L12.1964 31.7082L11.5679 32.5974L11.5523 31.5099L10.5086 31.1899L11.5424 30.8387L11.5253 29.7512Z" fill="white"/>
<path d="M10.5938 35.1876C9.54469 35.1876 8.53851 34.7725 7.79664 34.0338C7.05478 33.295 6.63801 32.293 6.63801 31.2482C6.63801 30.2034 7.05478 29.2014 7.79664 28.4626C8.53851 27.7238 9.54469 27.3088 10.5938 27.3088C11.0239 27.3091 11.451 27.3799 11.8579 27.5184C11.1165 27.0465 10.2555 26.7948 9.37557 26.7927C8.49568 26.7907 7.63342 27.0384 6.8898 27.5067C6.14617 27.9751 5.55198 28.6449 5.17681 29.4375C4.80164 30.23 4.66104 31.1127 4.77148 31.982C4.88191 32.8513 5.23881 33.6713 5.80037 34.3458C6.36192 35.0204 7.10488 35.5217 7.94221 35.7909C8.77954 36.0601 9.67656 36.0861 10.5282 35.8659C11.3799 35.6457 12.1509 35.1884 12.7509 34.5475C12.1095 34.9649 11.36 35.1873 10.5938 35.1876Z" fill="white"/>
</svg>
