<svg width="158" height="211" viewBox="0 0 158 211" fill="none" xmlns="http://www.w3.org/2000/svg">
<path opacity="0.0909" d="M10.8275 117.147C10.8343 117.016 14.9236 117.125 15.0403 117.131L141.719 123.686C141.85 123.693 145.929 124.007 145.922 124.138C147.439 124.216 148.584 125.826 148.506 127.343L144.427 206.165C144.348 207.682 143.043 209.165 141.526 209.086C141.519 209.217 137.312 208.853 137.18 208.847L76.2507 202.388L6.63847 202.34C4.99026 202.255 3.73163 200.859 3.81692 199.211L7.91149 120.082C8.00457 118.566 9.31055 117.069 10.8275 117.147Z" fill="#231F20"/>
<path opacity="0.1818" d="M11.5982 118.079C11.6111 117.831 15.414 117.823 15.6619 117.836L141.057 124.325C141.305 124.338 145.086 124.738 145.074 124.986C146.43 125.056 147.449 126.849 147.378 128.22L143.395 205.19C143.325 206.547 142.126 208.24 140.769 208.169C140.756 208.417 136.848 208.2 136.6 208.188L76.4269 202.09L7.72335 201.723C6.10432 201.64 4.85952 200.259 4.9433 198.64L8.95636 121.087C9.02731 119.716 10.2272 118.008 11.5982 118.079Z" fill="#231F20"/>
<path opacity="0.2727" d="M12.3544 119.011C12.374 118.632 15.8759 118.506 16.2551 118.525L140.366 124.948C140.746 124.967 144.23 125.455 144.211 125.834C145.421 125.897 146.298 127.887 146.236 129.098L142.349 204.2C142.287 205.411 141.209 207.3 139.998 207.238C139.979 207.617 136.37 207.547 135.991 207.528L76.5879 201.807L8.79215 201.136C7.20229 201.053 5.98515 199.703 6.06742 198.114L10.0012 122.092C10.0639 120.881 11.1438 118.948 12.3544 119.011Z" fill="#231F20"/>
<path opacity="0.3636" d="M13.1259 119.928C13.1523 119.418 16.3678 119.175 16.8783 119.201L139.706 125.557C140.216 125.583 143.39 126.157 143.363 126.667C144.428 126.723 145.178 128.897 145.123 129.961L141.334 203.197C141.279 204.262 140.308 206.347 139.243 206.292C139.217 206.802 135.923 206.866 135.412 206.839L76.7649 201.494L9.87705 200.519C8.31636 200.438 7.11305 199.104 7.19381 197.543L11.0461 123.097C11.0866 122.031 12.0612 119.873 13.1259 119.928Z" fill="#231F20"/>
<path opacity="0.4545" d="M13.8821 120.859C13.9146 120.232 16.8436 119.872 17.4708 119.904L139.015 126.194C139.642 126.226 142.518 126.887 142.486 127.514C143.39 127.561 144.014 129.919 143.966 130.838L140.273 202.221C140.226 203.125 139.361 205.42 138.457 205.374C138.424 206.001 135.43 206.211 134.803 206.179L76.9266 201.195L10.9466 199.916C9.40052 199.836 8.22563 198.518 8.30488 196.986L12.0764 124.1C12.1232 123.196 12.9778 120.813 13.8821 120.859Z" fill="#231F20"/>
<path opacity="0.5455" d="M14.6529 121.791C14.6921 121.033 17.3201 120.555 18.0786 120.594L138.339 126.817C139.098 126.856 141.677 127.604 141.638 128.362C142.396 128.402 142.878 130.957 142.839 131.715L139.242 201.231C139.202 201.99 138.459 204.482 137.701 204.442C137.661 205.201 134.967 205.559 134.208 205.519L77.0876 200.911L12.0162 199.313C10.4992 199.235 9.33743 197.946 9.41592 196.429L13.1067 125.104C13.1459 124.346 13.8944 121.752 14.6529 121.791Z" fill="#231F20"/>
<path opacity="0.6364" d="M15.4237 122.723C15.4697 121.834 17.8113 121.238 18.701 121.284L137.678 127.441C138.568 127.487 140.835 128.321 140.789 129.21C141.402 129.242 141.743 131.98 141.712 132.578L138.211 200.227C138.18 200.84 137.543 203.527 136.945 203.496C136.899 204.386 134.505 204.876 133.63 204.831L77.28 200.584L13.0865 198.696C11.5988 198.619 10.4508 197.346 10.5278 195.858L14.137 126.108C14.168 125.51 14.8111 122.692 15.4237 122.723Z" fill="#231F20"/>
<path opacity="0.7273" d="M16.1798 123.654C16.2319 122.648 18.287 121.935 19.2934 121.987L136.987 128.078C137.993 128.13 139.964 129.051 139.912 130.057C140.364 130.08 140.578 133.002 140.555 133.454L137.15 199.251C137.127 199.703 136.611 202.601 136.159 202.578C136.107 203.584 134.012 204.222 133.006 204.17L77.4118 200.299L14.1415 198.092C12.6829 198.017 11.548 196.773 11.6242 195.3L15.1527 127.111C15.2053 126.661 15.7277 123.631 16.1798 123.654Z" fill="#231F20"/>
<path opacity="0.8182" d="M16.9506 124.587C17.0095 123.449 18.7781 122.619 19.9013 122.677L136.311 128.701C137.449 128.76 139.122 129.768 139.064 130.906C139.37 130.921 139.457 134.041 139.442 134.333L136.134 198.263C136.118 198.569 135.709 201.663 135.403 201.647C135.344 202.785 133.563 203.57 132.425 203.511L77.6019 200.016L15.2402 197.491C13.7962 197.417 12.6897 196.189 12.7644 194.745L16.2122 128.117C16.2273 127.825 16.6443 124.571 16.9506 124.587Z" fill="#231F20"/>
<path opacity="0.9091" d="M17.7214 125.519C17.7863 124.264 19.2547 123.302 20.5237 123.368L135.65 129.325C136.904 129.39 138.281 130.485 138.215 131.754C138.361 131.761 138.322 135.065 138.314 135.21L135.103 197.273C135.095 197.419 134.807 200.724 134.647 200.716C134.582 201.97 133.1 202.903 131.831 202.837L77.7644 199.703L16.3105 196.874C14.8957 196.801 13.8176 195.589 13.8901 194.189L17.2563 129.136C17.2646 128.976 17.5609 125.51 17.7214 125.519Z" fill="#231F20"/>
<path d="M131.237 202.163L17.3801 196.271C15.9944 196.199 14.9294 195.018 15.0011 193.632L18.4783 126.435C18.55 125.05 19.7312 123.985 21.1169 124.056L134.974 129.948C136.36 130.02 137.425 131.201 137.353 132.587L133.876 199.784C133.804 201.169 132.623 202.234 131.237 202.163Z" fill="#231F20"/>
<path d="M140.93 204.215L7.52749 197.312C3.96853 197.127 1.2438 194.105 1.42796 190.546L9.61938 32.2458C9.76052 29.5182 11.6077 27.1714 14.2216 26.4L82.1403 6.32446C83.5508 5.91483 85.0532 5.99257 86.4139 6.5456L151.898 33.5241C154.418 34.5613 156.013 37.0862 155.872 39.8138L147.68 198.129C147.511 201.674 144.489 204.399 140.93 204.215Z" fill="url(#paint0_linear_902_234)"/>
<path d="M141.048 201.939L7.64523 195.036C4.08628 194.852 1.36155 191.83 1.54571 188.271L9.73788 29.9557C9.87902 27.2282 11.7262 24.8814 14.3401 24.1099L82.2588 4.03442C83.6693 3.62479 85.1717 3.70253 86.5324 4.25556L152.016 31.2341C154.537 32.2713 156.132 34.7962 155.99 37.5237L147.798 195.839C147.629 199.384 144.607 202.123 141.048 201.939Z" fill="url(#paint1_linear_902_234)"/>
<path d="M136.288 194.161L13.1827 187.791C9.90092 187.621 7.38366 184.829 7.55348 181.547L15.1139 35.4405C15.2445 32.9172 16.9498 30.7678 19.3711 30.0448L82.0466 11.5261C83.3535 11.1404 84.7392 11.2121 85.9994 11.7307L146.429 36.6195C148.763 37.574 150.237 39.9025 150.106 42.4258L142.547 188.518C142.362 191.799 139.569 194.331 136.288 194.161Z" stroke="white" stroke-miterlimit="10" stroke-linecap="round" stroke-linejoin="round" stroke-dasharray="3 3"/>
<path d="M92.9027 28.1167C92.6348 33.2947 88.2174 37.2635 83.054 36.9963C77.876 36.7283 73.9073 32.311 74.1744 27.1476C74.4424 21.9696 78.8597 18.0008 84.0231 18.268C89.1865 18.5352 93.1706 22.9387 92.9027 28.1167Z" fill="url(#paint2_linear_902_234)"/>
<path d="M91.8234 28.0609C91.5864 32.6408 87.6745 36.1678 83.0945 35.9308C78.5146 35.6938 74.9876 31.7819 75.2246 27.202C75.4616 22.622 79.3735 19.0951 83.9534 19.332C88.5334 19.569 92.0604 23.4809 91.8234 28.0609Z" fill="white"/>
<defs>
<linearGradient id="paint0_linear_902_234" x1="73.1513" y1="221.63" x2="78.2469" y2="123.156" gradientUnits="userSpaceOnUse">
<stop stop-color="#610000"/>
<stop offset="0.0149" stop-color="#650000"/>
<stop offset="0.167" stop-color="#8E0000"/>
<stop offset="0.3233" stop-color="#B00000"/>
<stop offset="0.4823" stop-color="#CA0000"/>
<stop offset="0.6453" stop-color="#DC0000"/>
<stop offset="0.8145" stop-color="#E70000"/>
<stop offset="1" stop-color="#EB0000"/>
</linearGradient>
<linearGradient id="paint1_linear_902_234" x1="85.1495" y1="-10.2375" x2="72.2381" y2="239.276" gradientUnits="userSpaceOnUse">
<stop stop-color="#610000"/>
<stop offset="0.0247" stop-color="#6F0000"/>
<stop offset="0.0934" stop-color="#900000"/>
<stop offset="0.1702" stop-color="#AC0000"/>
<stop offset="0.2556" stop-color="#C40000"/>
<stop offset="0.3535" stop-color="#D50000"/>
<stop offset="0.4714" stop-color="#E20000"/>
<stop offset="0.6297" stop-color="#E90000"/>
<stop offset="1" stop-color="#EB0000"/>
</linearGradient>
<linearGradient id="paint2_linear_902_234" x1="83.7222" y1="23.9092" x2="82.7669" y2="42.3694" gradientUnits="userSpaceOnUse">
<stop stop-color="#610000"/>
<stop offset="0.0247" stop-color="#6F0000"/>
<stop offset="0.0934" stop-color="#900000"/>
<stop offset="0.1702" stop-color="#AC0000"/>
<stop offset="0.2556" stop-color="#C40000"/>
<stop offset="0.3535" stop-color="#D50000"/>
<stop offset="0.4714" stop-color="#E20000"/>
<stop offset="0.6297" stop-color="#E90000"/>
<stop offset="1" stop-color="#EB0000"/>
</linearGradient>
</defs>
</svg>
